# xmcd
#
# Track frame offsets:
# 150
# 17162
# 29615
# 39922
# 56717
# 69332
# 81385
# 92665
# 103685
# 118410
# 130115
# 140515
#
# Disc length: 2066 seconds
#
#
# Revision: 0
# Processed by: cddbd v1.5.2PL0 Copyright (c) Steve Scherf et al.
# Submitted via: FreeRIP 2.96 
#
DISCID=a708100c
DTITLE=Dino Rocha - Pantanal, Sanfona and Viola
DYEAR=1900
DGENRE=Country
TTITLE0=Pantanal, Sanfona and Viola
TTITLE1=Asaidera
TTITLE2=Serena na Fronteira
TTITLE3=Florcita Misteriosa
TTITLE4=Recanto do Chamamé
TTITLE5=Baile Correntino
TTITLE6=Mi Virgem Querida
TTITLE7=Estância Dos Morros
TTITLE8=Tierra Donde Nasci
TTITLE9=Soledad
TTITLE10=Menino Chamamé
TTITLE11=Don Luis C. Borges
EXTD=
EXTT0=
EXTT1=
EXTT2=
EXTT3=
EXTT4=
EXTT5=
EXTT6=
EXTT7=
EXTT8=
EXTT9=
EXTT10=
EXTT11=
PLAYORDER=
